<svg xmlns="http://www.w3.org/2000/svg" viewBox="0 0 800 400" font-family="'Chakra Petch','Segoe UI',Arial,sans-serif">
  <defs><marker id="a" markerWidth="9" markerHeight="9" refX="7" refY="3" orient="auto"><path d="M0,0 L7,3 L0,6 z" fill="#6c7b93"/></marker></defs>
  <rect x="0" y="0" width="800" height="400" rx="12" fill="#0d121d" stroke="#263451"/>
  <text x="400" y="34" text-anchor="middle" font-size="17" font-weight="700" fill="#e3fffa">Three tricks, three blocked tools</text>
  <text x="400" y="56" text-anchor="middle" font-size="12" fill="#6c7b93" font-family="'JetBrains Mono',monospace">each trick targets one thing you normally do</text>
  <rect x="24" y="84" width="236" height="52" rx="7" fill="#111827" stroke="#00f0ff"/>
  <text x="142.0" y="106.0" text-anchor="middle" font-size="12.5" fill="#e3fffa">Your tool</text>
  <text x="142.0" y="122.0" text-anchor="middle" font-size="10.5" fill="#9fb0c8">Debugger attach</text>
  <rect x="24" y="176" width="236" height="64" rx="7" fill="#111827" stroke="#ff2a6d" stroke-dasharray="5 4"/>
  <text x="142.0" y="196.0" text-anchor="middle" font-size="12.5" fill="#e3fffa">Anti-attach</text>
  <text x="142.0" y="212.0" text-anchor="middle" font-size="10.5" fill="#9fb0c8">self-debug, patch</text>
  <text x="142.0" y="228.0" text-anchor="middle" font-size="10.5" fill="#9fb0c8">DbgUiRemoteBreakin</text>
  <rect x="24" y="280" width="236" height="64" rx="7" fill="#111827" stroke="#5fe3b0"/>
  <text x="142.0" y="300.0" text-anchor="middle" font-size="12.5" fill="#e3fffa">Way around</text>
  <text x="142.0" y="316.0" text-anchor="middle" font-size="10.5" fill="#9fb0c8">Block CreateProcess,</text>
  <text x="142.0" y="332.0" text-anchor="middle" font-size="10.5" fill="#9fb0c8">spawn under debugger</text>
  <line x1="142" y1="136" x2="142" y2="172" stroke="#6c7b93" stroke-width="2" marker-end="url(#a)"/>
  <line x1="142" y1="240" x2="142" y2="276" stroke="#6c7b93" stroke-width="2" marker-end="url(#a)"/>
  <rect x="282" y="84" width="236" height="52" rx="7" fill="#111827" stroke="#fcee0a"/>
  <text x="400.0" y="106.0" text-anchor="middle" font-size="12.5" fill="#e3fffa">Your tool</text>
  <text x="400.0" y="122.0" text-anchor="middle" font-size="10.5" fill="#9fb0c8">Scylla memory dump</text>
  <rect x="282" y="176" width="236" height="64" rx="7" fill="#111827" stroke="#ff2a6d" stroke-dasharray="5 4"/>
  <text x="400.0" y="196.0" text-anchor="middle" font-size="12.5" fill="#e3fffa">Anti-dump</text>
  <text x="400.0" y="212.0" text-anchor="middle" font-size="10.5" fill="#9fb0c8">wipe MZ and PE, fake</text>
  <text x="400.0" y="228.0" text-anchor="middle" font-size="10.5" fill="#9fb0c8">SizeOfImage</text>
  <rect x="282" y="280" width="236" height="64" rx="7" fill="#111827" stroke="#5fe3b0"/>
  <text x="400.0" y="300.0" text-anchor="middle" font-size="12.5" fill="#e3fffa">Way around</text>
  <text x="400.0" y="316.0" text-anchor="middle" font-size="10.5" fill="#9fb0c8">Restore header by hand,</text>
  <text x="400.0" y="332.0" text-anchor="middle" font-size="10.5" fill="#9fb0c8">dump at the OEP</text>
  <line x1="400" y1="136" x2="400" y2="172" stroke="#6c7b93" stroke-width="2" marker-end="url(#a)"/>
  <line x1="400" y1="240" x2="400" y2="276" stroke="#6c7b93" stroke-width="2" marker-end="url(#a)"/>
  <rect x="540" y="84" width="236" height="52" rx="7" fill="#111827" stroke="#ff2a6d"/>
  <text x="658.0" y="106.0" text-anchor="middle" font-size="12.5" fill="#e3fffa">Your tool</text>
  <text x="658.0" y="122.0" text-anchor="middle" font-size="10.5" fill="#9fb0c8">Detours, Frida, EDR</text>
  <rect x="540" y="176" width="236" height="64" rx="7" fill="#111827" stroke="#ff2a6d" stroke-dasharray="5 4"/>
  <text x="658.0" y="196.0" text-anchor="middle" font-size="12.5" fill="#e3fffa">Anti-hook</text>
  <text x="658.0" y="212.0" text-anchor="middle" font-size="10.5" fill="#9fb0c8">compare prologue to a</text>
  <text x="658.0" y="228.0" text-anchor="middle" font-size="10.5" fill="#9fb0c8">clean ntdll copy</text>
  <rect x="540" y="280" width="236" height="64" rx="7" fill="#111827" stroke="#5fe3b0"/>
  <text x="658.0" y="300.0" text-anchor="middle" font-size="12.5" fill="#e3fffa">Way around</text>
  <text x="658.0" y="316.0" text-anchor="middle" font-size="10.5" fill="#9fb0c8">Hardware breakpoint,</text>
  <text x="658.0" y="332.0" text-anchor="middle" font-size="10.5" fill="#9fb0c8">hook another layer</text>
  <line x1="658" y1="136" x2="658" y2="172" stroke="#6c7b93" stroke-width="2" marker-end="url(#a)"/>
  <line x1="658" y1="240" x2="658" y2="276" stroke="#6c7b93" stroke-width="2" marker-end="url(#a)"/>
  <text x="400" y="378" text-anchor="middle" font-size="11" fill="#6c7b93">They often come together, so expect to handle all three on one sample.</text>
</svg>
